<svg width="162" height="116" fill="none" xmlns="http://www.w3.org/2000/svg"><g clip-path="url('#clip0')"><path d="M31.747 19.479c3.123 0 5.655-2.524 5.655-5.636 0-3.113-2.532-5.636-5.655-5.636s-5.654 2.523-5.654 5.636c0 3.112 2.531 5.636 5.654 5.636ZM14.524 81.697 18 69.688l1.182.368s-1.404 8.989-3.622 11.273l-1.035.368Z" fill="#2F2E41"/><path d="M27.756 17.232s.443 4.715-.591 6.041c-1.035 1.326.665 3.905.665 3.905l3.104 3.683 4.583-2.062.666-3.831-.444-2.653s-1.552-1.547-.887-4.347c.665-2.8-7.096-.736-7.096-.736Z" fill="#FFB9B9"/><path opacity=".1" d="M27.756 17.232s.443 4.715-.591 6.041c-1.035 1.326.665 3.905.665 3.905l3.104 3.683 4.583-2.062.666-3.831-.444-2.653s-1.552-1.547-.887-4.347c.665-2.8-7.096-.736-7.096-.736Z" fill="#000"/><path d="M30.417 105.421v3.02l4.066.811-.37-5.01-3.696 1.179ZM42.614 104.242l-.887 4.199 1.774 1.253 3.104-2.284-.37-3.61-3.621.442Z" fill="#FFB9B9"/><path d="M34.852 108.883s-1.552-2.615-4.435-.976c0 0-.518 2.892-1.035 3.113-.517.221-3.4 4.42 0 4.788 3.4.369 5.1-.736 5.1-.736s-.665.57.37.275c1.035-.294.591-1.915.591-1.915l-.591-4.549ZM44.979 107.115s-2.292 1.621-2.661.884c-.37-.737-.961-.663-.961-.663s-2.07 7.776-.74 8.145c.857.21 1.757.164 2.588-.133 0 0 1.774-1.239 1.774-.281 0 .958 4.953.889 7.022.815 2.07-.073.961-1.621.961-1.621l-2.735-2.652-3.104-4.494s-1.405-1.253-2.144 0ZM23.173 57.827l3.105 29.69s1.7 18.125 1.995 18.419c.296.295 2.218 1.253 6.431 0l-.96-23.723 1.773-14.735 4.066 10.167s.96 27.334 1.626 27.334c.665 0 4.73 1.326 5.692-.295.96-1.621.813-19.082.813-19.082s-.444-27.554-3.696-28.438c-3.252-.884-20.845.663-20.845.663Z" fill="#2F2E41"/><path d="M31.747 19.958c2.817 0 5.1-2.276 5.1-5.083 0-2.808-2.283-5.084-5.1-5.084-2.817 0-5.1 2.276-5.1 5.083 0 2.808 2.284 5.084 5.1 5.084Z" fill="#FFB9B9"/><path d="M32.043 29.02s-.517-3.168-.517-3.758c0-.589-2.292-.957-2.292-.957s-1.774-1.99-2.143-1.695c-.37.295-5.988 4.052-6.875 4.568-.887.516-1.848 2.726-1.774 2.873.074.148 4.657 9.725 4.657 9.725s1.996 5.894.591 8.989c-1.404 3.094-3.178 9.209-.591 10.462 2.587 1.252 15.153 3.978 17.445 1.62 2.291-2.357 3.918-3.02 4.509-3.02.591 0-2.44-10.241-1.774-11.199.665-.958-.296-6.925-.296-6.925l3.4-9.504s-.295-5.305-7.022-6.484l-4.024-1.944-3.294 7.249Z" fill="#575A89"/><path d="M18.22 59.153s-.37 3.536-.37 4.568c0 1.031-1.774 7.072.814 7.809 2.587.737 2.365-8.03 2.365-8.03v-4.495l-2.809.148ZM48.897 55.838s.443 3.389.221 4.126c-.221.736 2.144 7.146-1.034 7.514-3.179.369-2.366-7.662-2.366-7.662v-3.978h3.179Z" fill="#FFB9B9"/><path d="M17.555 80.518 19.7 69.172h.665a4.456 4.456 0 0 1 .665 4.273c-.887 2.505-1.626 7.073-1.626 7.073h-1.848Z" fill="#2F2E41"/><path d="m19.55 29.167-1.108.884s-1.478 23.429-1.109 25.197c.37 1.768-1.33 4.273.148 4.494 1.478.221 3.252 1.179 4.066.59.813-.59.96-2.727 1.256-3.242.296-.516.813-6.631.813-6.631s1.553-6.115.592-10.683-1.848-9.21-1.848-9.21l-2.81-1.399ZM42.983 27.325l3.4 2.873 2.588 15.03s1.626 11.714.37 11.862c-1.257.147-3.18-.221-3.992 0-.814.22-1.479-.369-1.479-.369s-.887-4.715-.887-4.789c0-.073-.591-5.452-.591-5.452l-.74-6.04 1.11-6.631.221-6.484Z" fill="#575A89"/><path d="M26.943 96.874s-.48 1.376-1.143 3.249a732.115 732.115 0 0 1-2.739 7.627c-.41 1.11-.744 1.98-.923 2.386-.813 1.842-15.67-1.105-16.854-1.842-1.182-.737-1.478-3.242-1.626-6.778l-.001-.055c-.02-.714.163-1.777.468-3.025.153-.623.336-1.292.54-1.987.274-.932.584-1.909.909-2.881 1.394-4.177 3.037-8.26 3.037-8.26s2.883-1.99 3.917-3.316c1.035-1.326 6.727-2.357 6.727-2.357 1.626.073 5.322 6.336 6.8 8.251 1.48 1.916.888 8.989.888 8.989Z" fill="#3F3D56"/><path d="M18.664 85.675a.664.664 0 1 0 .002-1.328.664.664 0 0 0-.002 1.329ZM19.699 86.117a.369.369 0 1 0 .001-.737.369.369 0 0 0-.001.737Z" fill="#2F2E41"/><path d="M25.8 100.123c-.308.87-.654 1.85-1.011 2.848L4.665 96.449a83.46 83.46 0 0 1 .908-2.881l20.227 6.555ZM24.095 104.908c-.366 1.02-.723 2-1.034 2.841L3.657 101.46c-.02-.714.163-1.777.468-3.024l19.97 6.472Z" fill="#F2F2F2"/><path d="M18.664 85.16s1.478 6.483.591 12.23c-.887 5.746 2.218 11.125 2.218 11.125" stroke="#2F2E41" stroke-width="3" stroke-miterlimit="10"/><path d="M19.699 85.676s-2.883 10.461-2.957 11.935c-.074 1.473-1.257 12.009-2.735 13.114" stroke="#2F2E41" stroke-width="3" stroke-miterlimit="10"/><path d="M27.832 11.772s-1.155-2.992.52-3.97l.461 1.323s4.214-2.531 5.311-1.956l-1.04 1.381s4.908 0 5.254 1.899l-1.732.057s1.847 1.208 1.905 3.165l-3.694.23 1.79 1.036s-6.697.92-8.313-1.727l-.462-1.438Z" fill="#2F2E41"/><path d="M26.832 11.89s1.33 2.653 3.104 1.99 0-3.094 0-3.094l-1.182-.59-1.922 1.695Z" fill="#2F2E41"/><path d="m141.568 53.733-24.127-30.05a8.11 8.11 0 0 1-3.902 1.964c-4.542.892-8.978-2.2-9.908-6.905a8.702 8.702 0 0 1 3.021-8.496L98.426 0 51.558 39.923 94.7 93.656l46.868-39.923Z" fill="#F2F2F2"/><path d="M111.589 24.22c3.757 0 6.802-3.036 6.802-6.78s-3.045-6.78-6.802-6.78c-3.756 0-6.802 3.036-6.802 6.78s3.046 6.78 6.802 6.78Z" fill="#F2F2F2"/><path d="m69.03 47.647-2.081 2.4 7.011 6.04 2.081-2.401-7.011-6.039ZM114.102 90.577l-2.081 2.4 6.214 5.353 2.082-2.4-6.215-5.353Z" fill="#F9A826"/><path d="M125.331 72.697v.186a31.05 31.05 0 0 1-9.63 22.282 31.25 31.25 0 0 1-21.36 8.625 31.252 31.252 0 0 1-21.471-8.345 31.05 31.05 0 0 1-9.927-22.748 30.867 30.867 0 0 1 6.67-19.217A31.233 31.233 0 0 1 91.19 41.745a31.27 31.27 0 0 1 24.533 8.507 30.965 30.965 0 0 1 9.607 22.445Z" fill="#3F3D56"/><path d="M94.137 107.701c-19.365 0-35.12-15.703-35.12-35.004a34.826 34.826 0 0 1 9.37-23.804l.778.72a33.773 33.773 0 0 0-9.087 23.084c0 18.718 15.279 33.946 34.059 33.946 4.563.016 9.082-.89 13.284-2.663a33.808 33.808 0 0 0 11.167-7.65l.761.735a34.846 34.846 0 0 1-11.514 7.89 34.937 34.937 0 0 1-13.698 2.746Z" fill="#F9A826"/><path d="M99.23 106.961h-8.913v8.883h8.913v-8.883ZM69.612 53.48c.016.006.03.015.043.025.167.138-.043.402-.017.62.03.28.403.34.685.368.282.03.639.256.505.506-.709.243-1.426.004-2.15-.273a30.867 30.867 0 0 0-5.735 17.971c0 .668.02 1.331.063 1.988.06.043.125.078.193.104.213.08.459.066.654.18.155.09.259.251.414.336.443.241 1.059-.222 1.473.066.106.097.208.2.303.308.382.33 1.01.108 1.451.356.285.158.431.476.584.763.38.72.995 1.426 1.808 1.483.256-.012.513-.003.768.025.25.057.497.275.456.527-.07.433.145.907.087 1.34-.104.794-1.23 1.14-1.326 1.934 0 .174-.01.349-.03.522-.05.208-.207.377-.263.584-.106.391.176.783.484 1.045.31.264.68.493.849.86.178.392.091.847.148 1.272.128.928.932 1.616 1.76 2.06.265.11.5.281.687.5.212.306.191.71.263 1.076.174.894.93 1.633.951 2.544.015.65-.346 1.237-.562 1.849a4.252 4.252 0 0 0-.193 1.996 31.336 31.336 0 0 0 3.847 2.781c.073-.108.127-.228.159-.355a.7.7 0 0 0-.329-.727c.228-.086.436-.219.61-.39a.595.595 0 0 0 .11-.672c.373.046.817.07 1.063-.216.197-.228.184-.571.106-.86a3.545 3.545 0 0 1-.213-.876c.866.042 1.733.013 2.594-.087a1.68 1.68 0 0 0-.79-.986c.39-.065.745-.53.868-.905.107-.382.113-.785.017-1.17a.62.62 0 0 1-.013-.304.6.6 0 0 1 .31-.298l1.936-1.109c.115-.058.22-.134.31-.226.201-.239.171-.596.067-.89-.104-.294-.27-.571-.31-.88-.118-.925.875-1.589 1.21-2.46.114-.348.175-.71.183-1.076.027-.394.03-.849-.272-1.1-.29-.244-.743-.189-1.046-.415-.278-.207-.374-.607-.677-.774-.276-.152-.62-.055-.927-.127-.54-.125-.88-.744-1.43-.802-.31-.033-.663.119-.918-.06-.225-.162-.233-.48-.275-.752a2.095 2.095 0 0 0-1.698-1.696c-.32-.05-.668-.032-.942-.207-.276-.178-.401-.51-.62-.757-.348-.396-.9-.538-1.415-.658l-2.099-.49c-.371-.09-.85-.136-1.052.19-.06.123-.102.255-.124.39a1.213 1.213 0 0 1-1.141.855 1.348 1.348 0 0 0-.794-.613 5.02 5.02 0 0 1-.645-.152.903.903 0 0 1-.39-1.25 1.12 1.12 0 0 0-.194-1.348c-.356-.319-.872-.397-1.351-.365-.126-.273.085-.58.31-.779.227-.197.5-.391.55-.687.078-.466-.519-.819-.97-.681-.453.14-.741.577-.932 1.009a3.039 3.039 0 0 1-.376.717.737.737 0 0 1-.713.291c-.373-.095-.516-.537-.598-.909a5.913 5.913 0 0 1-.2-1.525c.004-.52.21-1.018.577-1.387.618-.567 1.569-.512 2.403-.421a.608.608 0 0 1 .063-.804.918.918 0 0 1 .832-.203c.252.052.478.187.643.383.238.287.306.679.484 1.004.18.328.584.607.912.432.287-.152.331-.546.261-.861-.072-.313-.222-.62-.197-.941.049-.611.688-.981 1.25-1.233.562-.252 1.205-.593 1.294-1.202.004-.118.027-.235.068-.346a.68.68 0 0 1 .253-.237c1.64-1.081 3.31-2.177 5.186-2.767.098-.031.108.002.208-.02.14-.081.047-.303-.087-.392-.134-.09-.312-.159-.346-.315-.023-.115.045-.229.062-.345a.428.428 0 0 0-.359-.452.433.433 0 0 0-.208.016c-.15-.199.147-.43.388-.497a10.639 10.639 0 0 1 2.218-.36.396.396 0 0 1 .253.043.3.3 0 0 1 .019.41 2.32 2.32 0 0 1-.338.307.924.924 0 0 0-.242.928c.393.2.817.404 1.252.335.433-.07.817-.557.614-.944-.19-.361-.76-.444-.858-.84-.114-.463.544-.875.395-1.328-.064-.198-.263-.317-.416-.459a1.25 1.25 0 0 1-.274-1.383 1.588 1.588 0 0 1-1.383-.431c-.331-.332-.594-.859-1.066-.842-.43.013-.802.514-1.205.362-.1-.038-.204-.115-.299-.07a.247.247 0 0 0-.112.184c-.102.488.074 1.045-.194 1.468-.29.459-.963.522-1.315.937-.191.224-.266.526-.442.763s-.547.39-.76.182a1.039 1.039 0 0 0-.284-1.269 2.74 2.74 0 0 0-.628-.305 3.735 3.735 0 0 1-.702-.389.695.695 0 0 1-.257-.275.63.63 0 0 1 .017-.435 1.78 1.78 0 0 1 1.42-1.172c.28-.038.606-.026.793-.24.098-.111.149-.282.293-.327a.428.428 0 0 1 .27.032l1.048.368a.72.72 0 0 0 .373.061.251.251 0 0 0 .219-.264c-.034-.174-.301-.256-.276-.432a.273.273 0 0 1 .087-.148 3.75 3.75 0 0 1 2.973-1.17c.132.218-.076.474-.253.658-.174.187-.314.516-.101.658a.56.56 0 0 0 .278.064c.258.034.508.11.742.224.363.156.72.33 1.068.516a1.337 1.337 0 0 1 .025-.685.466.466 0 0 1 .552-.299c.208.08.314.356.537.381.295.034.411-.402.288-.672-.123-.271-.369-.495-.388-.794-.015-.198.062-.446-.097-.566a.423.423 0 0 0-.19-.068l-4-.732c-.237-.044-.579-.01-.59.228-.006.136.115.27.062.392-.057.13-.244.12-.38.167a.515.515 0 0 0-.297.543c.036.22.122.43.25.612-.26-.108-.653-.127-.914-.237a3.5 3.5 0 0 0-.23-.878.307.307 0 0 0-.143-.219.31.31 0 0 0-.261-.03l-1.032.156a.4.4 0 0 0-.235.09c-.134.143-.002.369-.007.563a.526.526 0 0 1-.41.455c-.215.044-.438.041-.653-.008l-1.443-.222a2.364 2.364 0 0 0 1.09-.728c.192-.224.294-.643.018-.749a.661.661 0 0 0-.25-.019c-.654.005-1.17-.539-1.78-.77a1.757 1.757 0 0 0-.602-.11l-.683.836ZM125.291 74.28a.762.762 0 0 1-.65.306c-.664-.057-.944-1.011-1.602-1.119a.257.257 0 0 0-.174.017c-.097.053-.114.184-.121.294-.027.546-.051 1.113.164 1.616.312.736 1.12 1.354.95 2.134-.912-.42-1.387-1.442-1.602-2.422-.216-.979-.25-2.007-.636-2.933-.295.374-.911.065-1.178-.328-.255-.372-.412-.804-.658-1.182-.246-.377-.624-.715-1.074-.736-.473-.022-.885.302-1.245.609a2.872 2.872 0 0 0-.775.858c-.252.508-.187 1.105-.199 1.67-.013.608-.143 1.253-.561 1.702-.418.446-1.188.603-1.648.199a1.849 1.849 0 0 1-.461-.827 40.157 40.157 0 0 1-1.248-4.438c-.076.343-.38.785-.668.584a.587.587 0 0 1-.153-.199c-.539-.907-1.534-1.453-2.542-1.78-1.006-.326-2.065-.479-3.06-.838a7.842 7.842 0 0 1-1.59-.79 1.244 1.244 0 0 0-.076 1.274 1.023 1.023 0 0 0 1.15.48c.221-.072.408-.224.626-.3.219-.074.514-.038.609.173.094.201-.046.445.024.656.104.32.589.345.759.637a.584.584 0 0 1-.159.68 2.86 2.86 0 0 1-.641.394c-.713.396-1.22 1.07-1.844 1.595-.624.526-1.504.91-2.247.573.176-.895-.891-1.55-1.089-2.44-.065-.295-.032-.606-.123-.891-.133-.415-.503-.698-.804-1.011a3.98 3.98 0 0 1-1.093-2.887c.017-.368.085-.743 0-1.102-.083-.358-.382-.704-.751-.69-.843.038-1.906.102-2.347-.615-.16-.256-.227-.63.002-.827a.803.803 0 0 1 .609-.104c.634.062 1.267.125 1.901.186.444.043.924.079 1.305-.152.382-.23.548-.846.194-1.119-.257-.199-.72-.188-.796-.503-.062-.264.231-.563.072-.785-.112-.156-.367-.114-.522.004-.135.14-.282.268-.44.383-.303.157-.663.007-.99-.095-.327-.102-.764-.11-.921.192-.179.337.155.781-.02 1.12-.233.446-1.018.192-1.345.577-.373.44.255 1.1.13 1.662a1.043 1.043 0 0 1-1.025-.057.99.99 0 0 1-.429-.922c.03-.254.163-.514.074-.753a.88.88 0 0 0-.447-.408c-.616-.34-1.231-.68-1.847-1.017-.171.317.045.708.317.947.27.237.609.417.787.73a.957.957 0 0 1-.36 1.264.225.225 0 0 1-.185.032.255.255 0 0 1-.12-.158c-.324-.832-.814-1.65-1.595-2.084-.783-.436-1.906-.345-2.42.385-.12.174-.203.372-.31.556-.561.976-1.771 1.437-2.9 1.407a.56.56 0 0 1-.316-.074c-.183-.125-.174-.391-.147-.611l.12-.931a.744.744 0 0 1 .205-.51c.21-.165.511-.061.779-.065a.983.983 0 0 0 .893-.688 1.101 1.101 0 0 0-.31-1.1c-.12-.114-.284-.258-.22-.412a.344.344 0 0 1 .24-.16c.477-.138.984-.174 1.453-.339.471-.163.927-.497 1.04-.981.034-.148.049-.328.182-.402a.593.593 0 0 1 .213-.043 1.033 1.033 0 0 0 .885-1.072c.224-.156.54-.04.76.127.216.167.409.387.674.459.495.135.972-.303 1.486-.305.216 0 .439.077.64.002.206-.073.33-.276.486-.427.16-.152.435-.243.582-.08-.043-.307-.083-.611-.125-.916a1.81 1.81 0 0 0 1.47-.266l-1.602-.54a.346.346 0 0 1-.15-.08c-.117-.125 0-.32.093-.461.227-.34.265-.901-.108-1.07-.255-.117-.546.023-.79.158l-1.171.65c-.036.222.235.349.403.497a.674.674 0 0 1-.442 1.178.843.843 0 0 1 .151.712c-.26.02-.524.038-.787.057a.34.34 0 0 1-.255-.05c-.085-.074-.072-.205-.093-.315a.681.681 0 0 0-.577-.502 2 2 0 0 0-.805.074.492.492 0 0 1-.348-.008.346.346 0 0 1-.135-.174.882.882 0 0 1 .178-.85 4.87 4.87 0 0 1 .67-.615c.55-.48.953-1.102 1.165-1.798.433-.182.881-.427 1.316-.61a5.26 5.26 0 0 1 1.093-.365 5.178 5.178 0 0 1 1.072-.05c.488.008.978.016 1.466.027.436-.018.87.044 1.284.184.4.165.755.522.783.954a.292.292 0 0 1-.096.268.344.344 0 0 1-.184.043c-.406.012-.578.114-.983.129.257.272.546.56.92.609.657.084 1.13-.595 1.434-1.185a.576.576 0 0 0 .604.535c.163-.027.318-.088.457-.177a8.995 8.995 0 0 1 4.254-1.096.457.457 0 0 1 .35-.503c.304-.06.576.2.722.471.144.271.236.584.469.787.231.203.679.193.77-.1.089-.28-.206-.522-.45-.689-.246-.165-.503-.471-.337-.717 1.248-.277 2.506-.552 3.786-.607.217.007.434-.03.636-.11a.494.494 0 0 0 .297-.522 1.45 1.45 0 0 1-1.506-.567c1.313-.108 2.688-.203 3.951.091l1.106.935c-.21.218-.491.423-.338.64a.479.479 0 0 0 .389.134c.267.004.534.01.8.01a30.969 30.969 0 0 1 9.498 19.831c-.446-.017-.855.546-.798 1.036.068.57.48 1.026.775 1.517.048.08.092.162.131.247l-.04 1.396Z" fill="#F9A826"/><path d="M0 115.818h162M66.835 14.55a2.687 2.687 0 0 0 2.691-2.682 2.687 2.687 0 0 0-2.691-2.683 2.687 2.687 0 0 0-2.692 2.683 2.687 2.687 0 0 0 2.692 2.683ZM146.375 65.645a2.687 2.687 0 0 0 2.692-2.683 2.687 2.687 0 0 0-2.692-2.683 2.687 2.687 0 0 0-2.692 2.683 2.687 2.687 0 0 0 2.692 2.683ZM127.998 38.916a2.687 2.687 0 0 0 2.692-2.683 2.687 2.687 0 0 0-2.692-2.683 2.687 2.687 0 0 0-2.692 2.683 2.687 2.687 0 0 0 2.692 2.683Z" stroke="#3F3D56" stroke-width="2" stroke-miterlimit="10"/><path d="M110.337 61.91a3.015 3.015 0 0 0 3.02-3.011 3.015 3.015 0 0 0-3.02-3.011 3.016 3.016 0 0 0-3.021 3.01 3.016 3.016 0 0 0 3.021 3.011Z" fill="#3F3D56"/><path d="M120.04 53.19c2.2 0 3.982-1.777 3.982-3.969a3.975 3.975 0 0 0-3.982-3.969 3.976 3.976 0 0 0-3.982 3.969 3.976 3.976 0 0 0 3.982 3.969Z" fill="#fff"/><path d="M124.067 45.106a5.64 5.64 0 0 0-7.961.098c-2.171 2.219-5.271 13.421-5.271 13.421s11.16-3.366 13.331-5.584a5.602 5.602 0 0 0 1.6-3.988 5.605 5.605 0 0 0-1.699-3.947Zm-5.849 5.976a2.6 2.6 0 0 1-.6-2.827 2.601 2.601 0 0 1 2.39-1.635 2.603 2.603 0 0 1 2.597 3.076 2.596 2.596 0 0 1-.697 1.34 2.614 2.614 0 0 1-3.69.046Z" fill="#57B894"/></g><defs><clipPath id="clip0"><path fill="#fff" d="M0 0h162v116H0z"/></clipPath></defs></svg>